<svg width="16" height="12" viewBox="0 0 16 12" fill="none" xmlns="http://www.w3.org/2000/svg">
<path d="M5.35884 0.445801C4.85049 0.445801 3.31791 1.06753 3.04295 1.19178C2.76799 1.31603 2.4628 1.7039 2.1165 2.34405C1.76974 2.9842 1.49147 3.73254 1.03935 4.83332C0.587701 5.93409 0.482347 8.05628 0.497465 8.70399C0.512583 9.3517 0.586756 9.85768 1.25053 10.2408C1.91383 10.6235 2.5006 11.0241 3.11807 11.2651C3.73602 11.506 4.15743 11.6794 4.44373 11.4384C4.73002 11.1975 4.91852 10.7756 4.91852 10.7756C4.91852 10.7756 5.1897 10.3991 4.67758 10.1733C4.16546 9.94697 3.9094 9.7887 3.9316 9.55532C3.95428 9.32193 3.9916 9.1939 4.11963 9.22414C4.24766 9.25438 4.54955 9.79626 5.70938 10.0448C6.86921 10.2933 7.99975 10.2559 7.99975 10.2559C7.99975 10.2559 9.13077 10.2937 10.2906 10.0448C11.4504 9.79626 11.7518 9.25438 11.8799 9.22414C12.0079 9.1939 12.0452 9.32193 12.0679 9.55484C12.0906 9.7887 11.8345 9.94697 11.3224 10.1733C10.8103 10.3991 11.0815 10.7756 11.0815 10.7756C11.0815 10.7756 11.27 11.197 11.5563 11.4384C11.8421 11.6794 12.264 11.506 12.8814 11.2651C13.4989 11.0241 14.0862 10.624 14.7495 10.2408C15.4132 9.85768 15.4874 9.3517 15.5025 8.70399C15.5176 8.05675 15.4123 5.93409 14.9602 4.83332C14.5085 3.73254 14.2298 2.9842 13.883 2.34405C13.5372 1.7039 13.2315 1.31603 12.957 1.19131C12.6821 1.06753 11.149 0.445801 10.6407 0.445801C10.1323 0.445801 9.9821 0.800128 9.9821 0.800128L9.80493 1.19178C9.80493 1.19178 8.61439 0.965481 8.00779 0.965008C7.40118 0.965008 6.19505 1.19178 6.19505 1.19178L6.01788 0.799656C6.01788 0.799656 5.86765 0.445801 5.35884 0.445801ZM5.41411 5.1456H5.43301C6.17426 5.1456 6.77473 5.79425 6.77473 6.59409C6.77473 7.39439 6.17426 8.04258 5.43301 8.04258C4.69175 8.04258 4.09129 7.39439 4.09129 6.59409C4.09082 5.80181 4.68042 5.15646 5.41411 5.1456ZM10.567 5.1456H10.5859C11.3196 5.15646 11.9087 5.80228 11.9087 6.59409C11.9087 7.39439 11.3082 8.04258 10.567 8.04258C9.82525 8.04258 9.22525 7.39439 9.22525 6.59409C9.22525 5.79425 9.82525 5.1456 10.567 5.1456Z" fill="black"/>
</svg>
