<?xml version="1.0" encoding="UTF-8" standalone="no"?>
<svg
   width="25"
   height="25"
   viewBox="0 0 25 25"
   fill="none"
   version="1.1"
   id="svg18"
   sodipodi:docname="5522db11029ecda389fd97e0d5212201.svg"
   xmlns:inkscape="http://www.inkscape.org/namespaces/inkscape"
   xmlns:sodipodi="http://sodipodi.sourceforge.net/DTD/sodipodi-0.dtd"
   xmlns="http://www.w3.org/2000/svg"
   xmlns:svg="http://www.w3.org/2000/svg">
  <sodipodi:namedview
     id="namedview20"
     pagecolor="#ffffff"
     bordercolor="#666666"
     borderopacity="1.0"
     inkscape:pageshadow="2"
     inkscape:pageopacity="0.0"
     inkscape:pagecheckerboard="0" />
  <g
     clip-path="url(#clip0_2_857)"
     id="g6">
    <path
       fill-rule="evenodd"
       clip-rule="evenodd"
       d="M23.2238 20.7622C22.9999 21.3311 22.4831 22.132 21.7502 22.6963C21.3271 23.0222 20.8219 23.3338 20.1281 23.5393C19.3884 23.7585 18.4774 23.8326 17.3434 23.8326H6.97552C5.8417 23.8326 4.93065 23.7585 4.19091 23.5393C3.49704 23.3338 2.99198 23.0222 2.56878 22.6963C1.836 22.132 1.31913 21.3312 1.09516 20.7622C0.64412 19.616 0.639542 18.3155 0.639542 17.4965V7.12846C0.639542 6.30951 0.64412 5.00895 1.09525 3.86277C1.31921 3.29389 1.836 2.4929 2.56886 1.92869C2.99198 1.60281 3.49714 1.29132 4.19091 1.08576C4.93065 0.866555 5.8417 0.79248 6.97552 0.79248H17.3435C18.4774 0.79248 19.3884 0.866555 20.1282 1.08576C20.822 1.29132 21.3271 1.6029 21.7503 1.92869C22.4831 2.49299 23 3.29389 23.2239 3.86277C23.6749 5.00895 23.6795 6.30951 23.6795 7.12846V17.4964C23.6795 18.3155 23.6749 19.616 23.2238 20.7622Z"
       fill="url(#paint0_linear_2_857)"
       id="path2" />
    <path
       d="M13.8297 14.0357C13.4841 13.671 12.8768 13.4371 12.1598 13.4371C11.4429 13.4371 10.8356 13.671 10.49 14.0357C10.3095 14.226 10.2141 14.4211 10.184 14.6991C10.126 15.2375 10.1586 15.7009 10.2217 16.442C10.2818 17.1482 10.3958 18.0898 10.5447 19.0488C10.6507 19.7314 10.7367 20.0997 10.8152 20.3636C10.9423 20.7911 11.4172 21.1649 12.1598 21.1649C12.9025 21.1649 13.3774 20.791 13.5045 20.3636C13.5829 20.0998 13.669 19.7315 13.7749 19.0488C13.9239 18.0898 14.0379 17.1483 14.098 16.442C14.1609 15.7009 14.1937 15.2374 14.1355 14.6991C14.1056 14.4211 14.0101 14.2261 13.8297 14.0357ZM10.2761 10.7876C10.2761 11.8291 11.1203 12.6732 12.1617 12.6732C13.2031 12.6732 14.0473 11.8291 14.0473 10.7876C14.0473 9.74629 13.2031 8.90199 12.1617 8.90199C11.1203 8.90199 10.2761 9.74629 10.2761 10.7876ZM12.1383 3.34622C7.72827 3.35876 4.11483 6.9364 4.06017 11.346C4.01594 14.9182 6.29614 17.9739 9.48025 19.0938C9.55761 19.1211 9.63608 19.057 9.62381 18.9758C9.58215 18.6986 9.54278 18.4198 9.50652 18.1457C9.4937 18.0489 9.43199 17.9653 9.34244 17.9263C6.82583 16.8268 5.06837 14.3027 5.09657 11.3791C5.13357 7.5421 8.26658 4.41412 12.1036 4.38308C16.0259 4.3514 19.2271 7.53303 19.2271 11.4483C19.2271 14.3427 17.4774 16.8357 14.9802 17.9265C14.8908 17.9655 14.8295 18.0493 14.8167 18.146C14.7805 18.42 14.7412 18.6986 14.6995 18.9757C14.6873 19.0568 14.7657 19.121 14.843 19.0937C17.9967 17.9844 20.2637 14.9764 20.2637 11.4483C20.2639 6.97303 16.6165 3.33358 12.1383 3.34622ZM11.992 7.0634C14.4919 6.96653 16.5565 8.97222 16.5565 11.451C16.5565 12.7116 16.0224 13.8498 15.1687 14.6513C15.0964 14.7193 15.0574 14.8158 15.0631 14.9148C15.08 15.2165 15.0738 15.5094 15.0537 15.8403C15.0484 15.9284 15.1472 15.9848 15.2201 15.9349C16.6518 14.9567 17.5932 13.3118 17.5932 11.4509C17.5932 8.38686 15.0411 5.9076 11.9509 6.02737C9.07911 6.13861 6.77501 8.50644 6.73829 11.3801C6.71412 13.2703 7.66144 14.9446 9.11134 15.9352C9.18412 15.985 9.28274 15.9284 9.27743 15.8405C9.25729 15.5094 9.25115 15.2164 9.26809 14.9148C9.27359 14.8159 9.23476 14.7195 9.16243 14.6515C8.28214 13.8251 7.74155 12.6406 7.77598 11.3332C7.83659 9.0321 9.69175 7.1525 11.992 7.0634Z"
       fill="white"
       id="path4" />
  </g>
  <defs
     id="defs16">
    <linearGradient
       id="paint0_linear_2_857"
       x1="12.1595"
       y1="0.792481"
       x2="12.1595"
       y2="23.8325"
       gradientUnits="userSpaceOnUse">
      <stop
         stop-color="#F452FF"
         id="stop8" />
      <stop
         offset="1"
         stop-color="#832BC1"
         id="stop10" />
    </linearGradient>
    <clipPath
       id="clip0_2_857">
      <rect
         width="24"
         height="24"
         fill="white"
         transform="translate(0.159546 0.3125)"
         id="rect13" />
    </clipPath>
  </defs>
</svg>
