<svg width="14" height="14" viewBox="0 0 14 14" fill="none" xmlns="http://www.w3.org/2000/svg">
<path d="M13.9694 7.02704C13.969 6.60133 13.7997 6.19319 13.4986 5.89217C13.1976 5.59115 12.7895 5.42184 12.3638 5.42139C11.9739 5.42093 11.5975 5.5634 11.3056 5.82182C10.2437 5.14231 8.82685 4.71423 7.2641 4.66795L8.22043 1.39741L10.5682 1.83367C10.5682 1.85286 10.5643 1.87092 10.5654 1.89011C10.5794 2.15874 10.6994 2.41085 10.8991 2.59114C11.0987 2.77143 11.3617 2.86517 11.6304 2.8518C11.899 2.83771 12.151 2.71769 12.3312 2.51805C12.5115 2.31841 12.6052 2.05545 12.5918 1.78683C12.5778 1.51819 12.4578 1.26608 12.2581 1.08579C12.0585 0.905505 11.7955 0.811765 11.5268 0.825132C11.3557 0.834241 11.1896 0.88666 11.0443 0.977476C10.8989 1.06829 10.779 1.19453 10.6958 1.34436L10.6949 1.34407L7.86572 0.818359L6.73895 4.66739C5.17225 4.70887 3.75087 5.13469 2.68449 5.81279C2.39385 5.55988 2.02143 5.42084 1.63616 5.42139C1.21048 5.42192 0.80238 5.59125 0.501377 5.89225C0.200374 6.19326 0.0310403 6.60135 0.0305176 7.02704C0.0305176 7.57448 0.312422 8.07959 0.769001 8.3742C0.740463 8.53537 0.72583 8.6987 0.725262 8.86238C0.725262 11.1797 3.53472 13.0653 6.98812 13.0653C10.4415 13.0653 13.2504 11.1797 13.2504 8.8621C13.2504 8.70182 13.2357 8.54379 13.2095 8.38802C13.4413 8.24435 13.6326 8.044 13.7655 7.80589C13.8984 7.56777 13.9688 7.29973 13.9694 7.02704ZM4.01161 8.11966C4.01165 7.99009 4.03721 7.8618 4.08682 7.74211C4.13644 7.62241 4.20915 7.51366 4.3008 7.42207C4.39245 7.33047 4.50124 7.25783 4.62096 7.20828C4.74068 7.15873 4.86899 7.13324 4.99856 7.13328C5.12813 7.13332 5.25643 7.15887 5.37612 7.20849C5.49581 7.25811 5.60456 7.33082 5.69616 7.42247C5.78775 7.51411 5.8604 7.6229 5.90995 7.74263C5.9595 7.86235 5.98498 7.99066 5.98494 8.12023C5.98487 8.38191 5.88085 8.63284 5.69576 8.81783C5.51067 9.00281 5.25968 9.10669 4.998 9.10661C4.73632 9.10654 4.48538 9.00251 4.3004 8.81743C4.11542 8.63234 4.01154 8.38135 4.01161 8.11966ZM9.3139 10.7886C9.28456 10.8191 8.57655 11.5395 6.97655 11.5395C5.36808 11.5395 4.7247 10.8092 4.69845 10.7781C4.65777 10.7272 4.6384 10.6624 4.64441 10.5975C4.65042 10.5326 4.68134 10.4725 4.73069 10.4299C4.78004 10.3872 4.84398 10.3654 4.9091 10.3688C4.97422 10.3723 5.03546 10.4009 5.07997 10.4486C5.09464 10.4644 5.63136 11.0352 6.97627 11.0352C8.34487 11.0352 8.9448 10.444 8.95101 10.4384C8.99842 10.3951 9.06055 10.3714 9.12478 10.3723C9.189 10.3731 9.25049 10.3984 9.29672 10.443C9.34296 10.4876 9.37047 10.5481 9.37366 10.6122C9.37686 10.6764 9.35549 10.7396 9.3139 10.7886ZM9.11778 9.10647C8.98823 9.10653 8.85994 9.08107 8.74022 9.03154C8.62051 8.98201 8.51173 8.90939 8.42008 8.81783C8.32843 8.72626 8.25572 8.61753 8.20609 8.49787C8.15646 8.3782 8.13089 8.24992 8.13083 8.12037C8.13078 7.99082 8.15624 7.86252 8.20577 7.74281C8.25529 7.6231 8.32791 7.51431 8.41948 7.42267C8.51105 7.33102 8.61977 7.25831 8.73944 7.20868C8.85911 7.15905 8.98739 7.13348 9.11694 7.13342C9.37858 7.13331 9.62955 7.23714 9.81464 7.42207C9.99973 7.607 10.1038 7.85788 10.1039 8.11952C10.104 8.38117 10.0002 8.63214 9.81524 8.81723C9.63031 9.00232 9.37943 9.10636 9.11778 9.10647Z" fill="black"/>
</svg>
