<svg width="14" height="13" viewBox="0 0 14 13" fill="none" xmlns="http://www.w3.org/2000/svg">
<path d="M13.9116 2.25151C13.3912 2.48253 12.8389 2.63389 12.2733 2.70053C12.8692 2.3443 13.3151 1.7833 13.5275 1.12234C12.9677 1.45479 12.3551 1.68902 11.7162 1.81492C11.4494 1.53016 11.1269 1.30326 10.7688 1.1483C10.4107 0.99333 10.0245 0.913605 9.63428 0.914064C8.0592 0.914064 6.78215 2.19112 6.78215 3.76648C6.78215 3.98972 6.80727 4.20731 6.85609 4.41644C4.48543 4.29734 2.38344 3.16196 0.976566 1.43617C0.722819 1.8715 0.589561 2.36654 0.590486 2.87043C0.590486 3.8599 1.09397 4.73309 1.85936 5.24448C1.40639 5.2301 0.963422 5.1077 0.567344 4.88747L0.567062 4.92359C0.567062 6.30535 1.55032 7.45794 2.85532 7.72041C2.43512 7.83416 1.99454 7.85076 1.56697 7.76895C1.93019 8.90207 2.98345 9.727 4.23143 9.74986C3.22113 10.5429 1.97338 10.9731 0.688982 10.971C0.458971 10.971 0.231782 10.9575 0.00854492 10.931C1.31271 11.7692 2.83069 12.2141 4.38101 12.2125C9.62779 12.2125 12.4966 7.86632 12.4966 4.09696C12.4966 3.97335 12.494 3.85002 12.4887 3.72753C13.0472 3.3243 13.5291 2.82442 13.9116 2.25151Z" fill="black"/>
</svg>
