<svg width="27" height="20" viewBox="0 0 27 20" fill="none" xmlns="http://www.w3.org/2000/svg">
<g clip-path="url(#clip0_2_851)">
<path d="M25.6175 3.8497C25.3335 2.78369 24.4966 1.94426 23.4338 1.65936C21.5077 1.1416 13.7837 1.1416 13.7837 1.1416C13.7837 1.1416 6.05979 1.1416 4.13355 1.65936C3.07085 1.94426 2.23385 2.78369 1.94982 3.8497C1.43369 5.78175 1.43369 9.81283 1.43369 9.81283C1.43369 9.81283 1.43369 13.844 1.94982 15.7762C2.23385 16.8421 3.07085 17.6815 4.13355 17.9665C6.05979 18.4841 13.7837 18.4841 13.7837 18.4841C13.7837 18.4841 21.5077 18.4841 23.4338 17.9665C24.4966 17.6815 25.3335 16.8421 25.6175 15.7762C26.1337 13.844 26.1337 9.81283 26.1337 9.81283C26.1337 9.81283 26.1337 5.78175 25.6175 3.8497Z" fill="#ED1D24"/>
<path d="M11.257 13.4728L17.7127 9.81297L11.257 6.15283V13.4728Z" fill="white"/>
</g>
<defs>
<clipPath id="clip0_2_851">
<rect width="26" height="19" fill="white" transform="translate(0.783691 0.3125)"/>
</clipPath>
</defs>
</svg>
