<svg width="16" height="12" viewBox="0 0 16 12" fill="none" xmlns="http://www.w3.org/2000/svg">
<path d="M15.5333 2.86683C15.5333 2.7335 15.3333 1.66683 14.8666 1.20016C14.2666 0.533496 13.5999 0.466829 13.2666 0.466829H13.1999C11.1333 0.333496 8.06659 0.333496 7.99992 0.333496C7.99992 0.333496 4.86659 0.333496 2.79992 0.466829H2.73325C2.39992 0.466829 1.73325 0.533496 1.13325 1.20016C0.666585 1.7335 0.466585 2.80016 0.466585 2.9335C0.466585 3.00016 0.333252 4.20016 0.333252 5.46683V6.60016C0.333252 7.86683 0.466585 9.06683 0.466585 9.1335C0.466585 9.26683 0.666585 10.3335 1.13325 10.8002C1.66659 11.4002 2.33325 11.4668 2.73325 11.5335H2.93325C4.13325 11.6668 7.79992 11.6668 7.93325 11.6668C7.93325 11.6668 11.0666 11.6668 13.1333 11.5335H13.1999C13.5333 11.4668 14.1999 11.4002 14.7999 10.8002C15.2666 10.2668 15.4666 9.20016 15.4666 9.06683C15.4666 9.00016 15.5999 7.80016 15.5999 6.5335V5.40016C15.6666 4.20016 15.5333 2.9335 15.5333 2.86683ZM10.5999 6.1335L6.59992 8.26683C6.53325 8.26683 6.53325 8.3335 6.46659 8.3335C6.39992 8.3335 6.33325 8.3335 6.33325 8.26683C6.26659 8.20016 6.19992 8.1335 6.19992 8.00016V3.66683C6.19992 3.5335 6.26659 3.46683 6.33325 3.40016C6.39992 3.3335 6.53325 3.3335 6.66659 3.40016L10.6666 5.5335C10.7999 5.60016 10.8666 5.66683 10.8666 5.80016C10.8666 5.9335 10.7333 6.06683 10.5999 6.1335Z" fill="black"/>
</svg>
