<svg width="56" height="47" viewBox="0 0 56 47" fill="none" xmlns="http://www.w3.org/2000/svg">
<path d="M42.6973 9.50315C40.2007 6.49101 36.8316 4.31968 33.05 3.28553C29.2685 2.25139 25.2586 2.40483 21.5677 3.72491C17.877 5.04499 14.6851 7.46739 12.4278 10.6614C10.1705 13.8556 8.95794 17.6656 8.95538 21.5716V26.7537" stroke="white" stroke-opacity="0.4" stroke-width="4.92496" stroke-linecap="round" stroke-linejoin="round"/>
<path d="M15.0117 37.7568C17.6299 40.5201 21.0206 42.4369 24.7448 43.259C28.4691 44.0811 32.3554 43.7707 35.9005 42.368C39.4455 40.9651 42.4862 38.5346 44.6288 35.3911C46.7713 32.2475 47.9172 28.5357 47.9178 24.7361V21.286" stroke="white" stroke-opacity="0.4" stroke-width="4.92496" stroke-linecap="round" stroke-linejoin="round"/>
<path d="M17.5805 18.2664C17.5696 18.4742 17.5007 18.676 17.3779 18.8512L9.30673 30.2401C9.08407 30.5529 8.71758 30.7317 8.33315 30.7116C7.94873 30.6916 7.60301 30.4755 7.41441 30.1413L0.582634 17.9744C0.384628 17.6204 0.394016 17.1863 0.610847 16.8419C0.826273 16.496 1.21182 16.2958 1.61858 16.3171L16.5215 17.095C16.9283 17.1163 17.2908 17.3554 17.4687 17.7219C17.5537 17.8945 17.5902 18.0824 17.5805 18.2664Z" fill="white"/>
<path d="M38.8516 28.6356C38.8588 28.4304 38.9233 28.2301 39.0414 28.0553L46.8076 16.6804C47.0219 16.3679 47.3804 16.1852 47.7599 16.1984C48.1396 16.2116 48.4844 16.4187 48.6762 16.7453L55.6269 28.6321C55.8284 28.9781 55.8267 29.4065 55.6186 29.75C55.4121 30.095 55.0352 30.299 54.6335 30.285L39.9167 29.7731C39.515 29.7592 39.1532 29.5294 38.9714 29.1709C38.8845 29.0021 38.8452 28.8173 38.8516 28.6356Z" fill="white"/>
</svg>
