<svg width="34" height="27" viewBox="0 0 34 27" fill="none" xmlns="http://www.w3.org/2000/svg">
<path d="M19.2098 0.614868H14.7308C14.263 0.614868 13.8838 0.994081 13.8838 1.46186V25.309C13.8838 25.7768 14.263 26.156 14.7308 26.156H19.2098C19.6776 26.156 20.0568 25.7768 20.0568 25.309V1.46186C20.0568 0.994081 19.6776 0.614868 19.2098 0.614868Z" fill="white"/>
<path d="M28.339 26.1558C31.237 26.1558 33.5863 23.8065 33.5863 20.9086C33.5863 18.0106 31.237 15.6613 28.339 15.6613C25.4411 15.6613 23.0918 18.0106 23.0918 20.9086C23.0918 23.8065 25.4411 26.1558 28.339 26.1558Z" fill="#0328EE"/>
<path d="M28.339 11.1094C31.237 11.1094 33.5863 8.76009 33.5863 5.86211C33.5863 2.96414 31.237 0.614868 28.339 0.614868C25.4411 0.614868 23.0918 2.96414 23.0918 5.86211C23.0918 8.76009 25.4411 11.1094 28.339 11.1094Z" fill="#0328EE"/>
<path d="M5.60174 26.1558C8.49971 26.1558 10.849 23.8065 10.849 20.9086C10.849 18.0106 8.49971 15.6613 5.60174 15.6613C2.70376 15.6613 0.354492 18.0106 0.354492 20.9086C0.354492 23.8065 2.70376 26.1558 5.60174 26.1558Z" fill="#0328EE"/>
</svg>

