<svg width="29" height="29" viewBox="0 0 29 29" fill="none" xmlns="http://www.w3.org/2000/svg">
<path d="M22.6021 12.775C18.8417 12.775 15.7892 9.73412 15.7892 5.9969C15.7892 5.50943 15.8473 5.04518 15.9401 4.58093H6.88721C3.38211 4.58093 0.538574 7.41286 0.538574 10.8948V22.5591C0.538574 26.0526 3.38211 28.8729 6.88721 28.8729H18.6096C22.1263 28.8729 24.9582 26.041 24.9582 22.5591V12.3456C24.2386 12.6125 23.4378 12.775 22.6021 12.775Z" fill="#0328EE"/>
<path d="M23.1236 10.4338C25.8511 10.4338 28.0563 8.24019 28.0563 5.52432C28.0563 2.82006 25.8511 0.614868 23.1236 0.614868C20.3961 0.614868 18.1909 2.80845 18.1909 5.52432C18.1909 8.22858 20.3961 10.4338 23.1236 10.4338Z" fill="white"/>
</svg>


