<svg width="47" height="24" viewBox="0 0 47 24" fill="none" xmlns="http://www.w3.org/2000/svg">
<path d="M13.7259 23.1624C12.7573 24.111 11.1865 24.1097 10.2196 23.1594L0.963605 14.0631C-0.000981638 13.1151 0.000361387 11.5812 0.966608 10.6349L10.2226 1.56974C11.1888 0.62341 12.755 0.622094 13.7229 1.5668L23.0107 10.632C23.981 11.579 23.9823 13.1174 23.0137 14.066L13.7259 23.1624Z" fill="#0328EE"/>
<path d="M26.5205 23.1585C25.5537 24.1087 23.9828 24.1101 23.0142 23.1614L13.7264 14.0651C12.7578 13.1165 12.7592 11.5781 13.7294 10.631L23.0172 1.56588C23.9851 0.62118 25.5513 0.622494 26.5175 1.56882L35.7735 10.634C36.7398 11.5803 36.7411 13.1142 35.7765 14.0621L26.5205 23.1585Z" fill="white"/>
<path d="M36.0045 23.1604C35.0368 24.1096 33.4662 24.1096 32.4984 23.1604L23.2249 14.0638C22.2582 13.1155 22.2595 11.5791 23.2279 10.6324L32.5014 1.56698C33.4685 0.621634 35.0345 0.621634 36.0016 1.56698L45.275 10.6324C46.2434 11.5791 46.2448 13.1155 45.278 14.0638L36.0045 23.1604Z" fill="#0328EE"/>
</svg>

